<?xml version="1.0" standalone="no"?>
<!DOCTYPE svg PUBLIC "-//W3C//DTD SVG 20010904//EN"
 "http://www.w3.org/TR/2001/REC-SVG-20010904/DTD/svg10.dtd">
<svg version="1.0" xmlns="http://www.w3.org/2000/svg"
 width="1519pt" height="1359pt" viewBox="0 0 1519 1359"
 preserveAspectRatio="xMidYMid meet">

<g transform="translate(0,1359) scale(0.1,-0.1)"
fill="#6247AA" stroke="none">
<path d="M2098 13538 c2 -24 14 -149 28 -278 62 -593 156 -1061 294 -1481 94
-284 160 -437 368 -850 2 -4 -52 12 -120 36 -165 57 -351 108 -533 144 -232
47 -625 93 -625 74 0 -17 518 -607 742 -845 l128 -136 -77 -7 c-42 -4 -119 -5
-170 -2 -83 5 -101 9 -160 42 -229 126 -634 525 -1150 1131 -146 172 -390 471
-476 583 -103 134 -223 294 -260 350 -21 29 -37 51 -37 49 0 -3 34 -88 75
-189 375 -915 731 -1525 1110 -1904 313 -314 565 -472 1295 -815 168 -79 410
-197 538 -262 128 -65 235 -118 237 -118 5 0 -303 287 -502 468 -65 59 -188
175 -273 259 -135 133 -153 154 -140 166 20 18 145 70 158 66 5 -2 134 -126
285 -275 262 -258 532 -512 697 -654 41 -36 95 -84 120 -107 25 -23 66 -59 92
-80 25 -21 124 -103 220 -183 800 -671 1626 -1241 2488 -1717 152 -84 618
-316 725 -361 l70 -29 3 -459 2 -459 -96 -70 c-166 -121 -320 -288 -428 -469
l-48 -79 458 -1830 c252 -1007 459 -1827 460 -1822 2 6 208 828 459 1829 l456
1818 -42 74 c-99 172 -264 353 -442 484 l-87 65 2 459 3 460 90 39 c247 106
683 333 1023 531 651 381 1253 798 1898 1314 219 176 544 448 659 553 22 20
112 101 200 180 139 126 747 709 799 768 25 28 34 27 122 -14 65 -30 74 -37
65 -52 -12 -22 -186 -193 -382 -373 -399 -370 -508 -471 -519 -485 -6 -8 116
50 272 129 155 78 335 166 398 196 259 120 642 310 745 370 372 214 631 441
901 790 259 334 566 917 859 1630 30 74 55 139 55 143 0 5 -21 -22 -46 -60
-105 -154 -491 -642 -719 -909 -520 -611 -934 -1015 -1159 -1135 -57 -31 -67
-33 -186 -36 -69 -2 -144 -1 -167 4 l-42 8 47 50 c278 297 707 781 812 918 13
18 11 18 -61 13 -424 -35 -853 -128 -1204 -262 -16 -6 -18 -5 -9 7 43 54 206
401 282 599 164 426 273 871 347 1415 26 191 65 555 65 605 0 27 -1 28 -28 19
-65 -22 -306 -146 -426 -217 -119 -71 -360 -245 -449 -324 -410 -364 -716
-736 -1069 -1303 -158 -255 -458 -782 -458 -806 0 -5 -5 -9 -11 -9 -6 0 -131
40 -278 89 -494 166 -796 225 -1211 238 -388 12 -758 -41 -1093 -157 -64 -22
-119 -40 -122 -40 -3 0 -5 187 -5 415 l0 415 101 0 101 0 -7 78 c-19 208 -78
466 -146 637 -88 217 -219 392 -355 471 l-43 26 -55 -37 c-189 -126 -342 -395
-427 -753 -23 -97 -59 -330 -59 -384 l0 -38 100 0 100 0 0 -419 0 -420 -59 24
c-158 65 -418 128 -661 162 -179 24 -622 24 -815 0 -317 -41 -514 -89 -896
-217 -146 -50 -269 -90 -275 -90 -5 0 -36 51 -68 113 -165 313 -404 713 -584
977 -97 143 -291 407 -324 441 -7 8 -48 55 -89 104 -373 441 -817 786 -1277
990 -56 25 -104 45 -105 45 -1 0 -1 -19 1 -42z m4038 -2613 c374 -40 721 -131
1038 -274 l69 -31 -117 -116 c-441 -439 -713 -998 -850 -1745 -27 -147 -66
-466 -66 -541 0 -26 -4 -49 -9 -52 -5 -3 -20 9 -34 27 -15 17 -42 50 -62 72
-79 88 -268 338 -367 485 -275 411 -474 762 -946 1671 l-80 155 56 26 c405
185 578 250 786 293 216 46 361 53 582 30z m3275 5 c279 -28 556 -114 914
-285 77 -36 141 -68 143 -70 4 -4 -28 -70 -143 -290 -29 -55 -90 -172 -135
-260 -140 -271 -292 -547 -423 -770 -264 -450 -473 -748 -750 -1069 l-34 -40
-7 110 c-9 148 -40 384 -71 546 -141 732 -422 1295 -853 1710 l-110 106 93 41
c311 137 652 227 1006 265 157 17 241 19 370 6z m-2161 -2181 l0 -1360 -22 6
c-49 13 -253 120 -364 192 -184 117 -328 233 -517 414 l-68 65 31 145 c124
585 311 1061 577 1466 101 155 328 433 353 433 6 0 10 -495 10 -1361z m780
1276 c25 -27 47 -52 50 -55 3 -3 33 -39 66 -80 344 -429 584 -979 734 -1688
l28 -134 -91 -87 c-181 -173 -333 -294 -517 -412 -87 -55 -296 -163 -337 -174
l-23 -6 0 1361 0 1361 23 -18 c12 -10 43 -40 67 -68z m-190 -4957 c1 -16 -244
-1398 -246 -1395 -1 1 -57 310 -123 687 -67 377 -123 693 -125 703 -4 16 13
17 245 17 192 0 249 -3 249 -12z"/>
<path d="M2085 8859 c-172 -30 -339 -80 -535 -161 -124 -51 -480 -231 -480
-243 0 -2 32 5 71 16 491 136 932 161 1234 68 214 -65 394 -198 537 -400 95
-133 161 -274 331 -709 79 -202 153 -360 212 -457 l26 -43 -43 0 c-95 -1 -356
-75 -453 -129 -27 -16 -111 -65 -185 -111 -397 -242 -804 -400 -1145 -445
-776 -102 -1320 341 -1596 1299 -22 77 -42 142 -44 145 -3 2 -6 -45 -7 -105
-1 -60 -2 -123 -3 -140 -4 -66 15 -338 30 -436 61 -387 195 -698 410 -948 131
-153 280 -267 468 -359 180 -88 363 -140 597 -172 145 -20 485 -16 665 7 203
26 266 25 335 -5 106 -46 346 -201 514 -330 236 -185 418 -334 645 -531 79
-69 181 -157 226 -196 66 -56 244 -214 369 -326 25 -22 32 -23 -170 7 -969
141 -1859 68 -2714 -223 -244 -83 -692 -271 -647 -272 9 0 61 7 115 15 155 23
529 63 762 82 273 21 981 24 1205 5 860 -75 1517 -266 2125 -615 987 -567
1734 -1549 2296 -3022 21 -54 39 -94 42 -87 7 21 -18 489 -34 640 -62 595
-224 1059 -524 1507 -314 468 -852 982 -1577 1505 l-90 65 -29 85 c-109 322
-372 691 -689 970 -385 338 -877 642 -1478 915 -59 27 -106 52 -105 56 2 5
191 152 421 328 l418 320 87 -75 c177 -152 460 -327 692 -427 806 -348 1694
-318 2061 69 48 51 94 113 88 119 -2 1 -152 28 -334 60 -1011 174 -1358 274
-1665 480 -264 177 -368 319 -636 863 -220 446 -340 652 -490 837 -228 283
-476 442 -783 505 -133 27 -369 27 -526 -1z"/>
<path d="M12578 8861 c-249 -54 -437 -155 -625 -334 -219 -210 -352 -414 -625
-962 -94 -187 -186 -369 -206 -405 -156 -283 -357 -474 -647 -615 -290 -142
-624 -225 -1500 -375 -165 -28 -302 -53 -304 -56 -7 -7 53 -87 108 -141 137
-136 372 -233 661 -274 137 -19 441 -14 611 10 531 77 1056 307 1445 634 l102
86 421 -322 c231 -177 421 -324 421 -327 0 -3 -39 -23 -87 -45 -121 -53 -425
-205 -558 -277 -333 -183 -660 -404 -893 -604 -102 -87 -299 -289 -376 -384
-153 -189 -288 -424 -358 -619 l-33 -94 -95 -70 c-167 -123 -202 -150 -345
-262 -288 -226 -427 -346 -649 -564 -184 -181 -287 -293 -405 -441 -409 -512
-619 -1030 -696 -1720 -17 -156 -38 -552 -33 -624 l3 -50 49 130 c214 561 490
1110 770 1529 675 1012 1528 1630 2641 1915 306 78 609 127 1005 162 218 19
930 16 1200 -5 233 -19 607 -59 762 -82 54 -8 104 -15 110 -15 33 2 -270 135
-492 218 -906 336 -1850 427 -2870 276 -91 -13 -169 -24 -175 -24 -5 1 4 13
21 28 17 15 107 94 200 177 93 82 183 161 199 176 17 14 71 62 120 105 140
124 484 408 655 541 277 215 493 353 610 388 60 18 67 18 199 2 328 -42 562
-45 805 -11 795 110 1297 631 1431 1484 21 133 33 636 16 653 -8 8 -11 7 -11
-5 0 -29 -71 -261 -117 -383 -138 -365 -324 -638 -553 -812 -99 -75 -273 -163
-380 -193 -495 -137 -1083 13 -1808 462 -62 38 -138 80 -171 93 -81 33 -282
86 -356 93 l-63 7 63 112 c57 103 97 198 260 611 170 434 334 660 578 796 309
173 751 187 1336 42 79 -20 146 -34 148 -32 6 6 -180 105 -328 175 -216 102
-385 160 -599 208 -160 35 -461 42 -592 14z"/>
</g>
</svg>
