<?xml version="1.0" standalone="no"?>
<!DOCTYPE svg PUBLIC "-//W3C//DTD SVG 20010904//EN"
 "http://www.w3.org/TR/2001/REC-SVG-20010904/DTD/svg10.dtd">
<svg version="1.0" xmlns="http://www.w3.org/2000/svg"
 width="986pt" height="1368pt" viewBox="0 0 986 1368"
 preserveAspectRatio="xMidYMid meet">

<g transform="translate(0.0,1368) scale(0.1,-0.1)"
fill="#7852a8" stroke="none">
<path d="M7010 12883 c-168 -126 -565 -448 -1110 -898 -492 -407 -1002 -804
-1079 -841 -83 -40 -189 9 -267 123 -82 120 -101 218 -69 368 59 282 203 534
582 1019 81 103 155 197 163 209 77 107 -350 -315 -507 -500 -429 -508 -698
-987 -804 -1433 -18 -76 -18 -293 0 -350 37 -113 130 -200 234 -217 20 -3 40
-9 42 -14 3 -4 -7 -23 -23 -41 -57 -66 -204 -271 -289 -400 -371 -568 -597
-1100 -753 -1773 -10 -42 -41 -212 -59 -325 -16 -98 -43 -421 -39 -466 3 -38
4 -39 38 -35 19 1 57 11 84 22 53 20 70 17 62 -9 -9 -29 -44 -397 -60 -622
-50 -718 -16 -1348 104 -1930 16 -80 30 -148 30 -152 0 -5 4 -8 8 -8 5 0 12
100 15 223 8 266 28 507 67 810 23 185 68 427 88 478 16 41 83 113 194 208
117 100 159 144 175 187 11 27 22 132 58 516 11 129 19 167 45 234 124 311
358 662 718 1074 214 244 775 805 1097 1095 145 131 197 182 175 169 -8 -4
-64 -40 -125 -80 -60 -39 -229 -144 -375 -234 -792 -488 -1143 -759 -1515
-1173 -103 -116 -128 -135 -150 -117 -37 31 1 427 66 685 151 598 564 1326
1198 2110 161 199 398 474 547 635 389 420 828 862 1204 1210 337 312 356 330
350 330 -3 0 -57 -39 -120 -87z"/>
<path d="M3528 11653 c-39 -46 -320 -462 -459 -680 -319 -498 -608 -1028 -733
-1342 -79 -198 -93 -275 -106 -596 -34 -856 -109 -1385 -252 -1785 -47 -131
-82 -211 -174 -392 -46 -92 -91 -196 -100 -230 -12 -48 -17 -155 -24 -443 l-8
-380 -36 -138 c-43 -171 -85 -265 -142 -317 -53 -49 -103 -63 -172 -50 -406
77 -508 740 -301 1950 32 187 54 300 69 365 5 22 19 85 30 140 34 160 97 430
130 555 43 163 45 174 32 166 -7 -4 -12 -11 -12 -16 0 -5 -45 -102 -100 -215
-55 -114 -100 -209 -100 -210 0 -2 -15 -36 -34 -77 -258 -560 -434 -1081 -495
-1468 -12 -74 -26 -160 -31 -191 -13 -71 -13 -303 0 -366 5 -26 17 -86 26
-133 31 -156 67 -243 204 -485 139 -246 147 -269 186 -540 99 -687 260 -1277
456 -1670 149 -300 349 -520 573 -633 68 -34 190 -71 338 -102 252 -53 287
-73 373 -207 92 -142 163 -233 263 -336 216 -223 432 -339 746 -403 61 -12
177 -18 490 -24 555 -10 567 -13 762 -175 265 -221 497 -352 713 -403 116 -28
174 -34 435 -43 154 -5 363 -18 465 -29 612 -66 904 -85 1195 -77 518 14 872
105 1283 330 50 28 92 54 92 59 0 5 -3 7 -7 5 -25 -16 -373 -70 -648 -102
-353 -40 -942 -53 -1235 -27 -781 70 -1418 260 -1999 594 -1240 714 -2055
2030 -2411 3892 -16 83 -36 200 -45 261 -16 113 -21 128 -30 104 -13 -38 -57
-235 -70 -319 -70 -447 -18 -839 180 -1340 70 -177 107 -301 112 -376 5 -65 3
-79 -21 -128 -70 -144 -282 -211 -412 -130 -186 115 -320 490 -398 1114 -44
353 -81 1058 -58 1085 12 14 60 171 77 253 28 131 35 208 49 487 15 308 17
317 102 521 83 201 86 220 89 769 1 259 8 554 14 657 43 729 215 1345 519
1862 90 154 132 248 187 416 26 80 53 163 60 185 48 148 234 547 350 754 36
64 41 86 13 54z"/>
<path d="M5348 10595 c-105 -26 -192 -80 -233 -145 -34 -53 -67 -169 -63 -221
l3 -44 120 -6 c66 -3 128 -9 137 -13 30 -13 46 -68 53 -183 5 -85 11 -113 21
-113 13 0 18 20 29 120 8 72 31 141 56 168 17 19 31 22 102 22 176 0 184 8
169 149 -11 108 -35 151 -108 199 -98 66 -197 89 -286 67z m214 -122 c60 -57
106 -121 114 -160 8 -42 -21 -62 -108 -75 -78 -11 -381 -6 -410 7 -27 11 -22
57 11 123 35 69 85 119 137 137 22 8 76 14 122 15 l83 0 51 -47z"/>
<path d="M6370 10590 c-16 -31 -24 -160 -11 -206 14 -50 35 -61 140 -67 81 -5
91 -12 91 -67 0 -39 -30 -113 -51 -126 -8 -5 -50 -11 -94 -14 l-80 -5 -8 -52
c-5 -28 -5 -77 0 -110 7 -48 11 -58 28 -58 26 0 65 60 65 101 0 18 4 44 10 58
9 25 13 26 62 21 43 -5 59 -2 86 14 l32 21 0 130 c0 124 -1 132 -23 154 -17
16 -41 25 -83 31 -71 8 -84 18 -84 59 0 34 -46 136 -61 136 -4 0 -13 -9 -19
-20z"/>
<path d="M7678 10532 c-31 -33 -72 -103 -134 -227 -103 -205 -138 -265 -158
-265 -35 0 -41 30 -48 239 -4 113 -11 226 -15 249 l-8 44 -34 -66 c-32 -64
-34 -72 -38 -204 -8 -216 12 -313 79 -381 41 -42 77 -41 120 3 37 38 163 274
202 377 47 125 74 80 87 -141 10 -184 15 -220 35 -283 56 -171 93 201 46 458
-27 143 -46 207 -71 229 -17 15 -21 13 -63 -32z"/>
<path d="M6512 10515 l-37 -34 33 -1 c46 0 72 16 72 45 0 35 -23 32 -68 -10z"/>
<path d="M6517 10000 c-46 -50 -45 -74 3 -78 41 -3 83 17 88 40 2 9 -10 31
-25 48 l-29 32 -37 -42z"/>
<path d="M6825 7819 c-99 -9 -225 -27 -330 -44 -302 -52 -647 -151 -987 -284
-139 -54 -169 -62 -328 -85 -283 -42 -369 -81 -404 -183 -22 -66 -20 -185 5
-290 31 -125 30 -243 0 -306 -42 -86 -98 -115 -291 -153 -191 -37 -237 -61
-283 -149 -29 -56 -34 -188 -12 -361 32 -259 9 -319 -185 -474 -55 -44 -101
-89 -117 -117 l-26 -45 6 -286 c7 -286 13 -386 43 -622 92 -739 328 -1363 696
-1838 108 -139 365 -396 496 -496 447 -339 981 -553 1597 -640 265 -37 325
-41 675 -40 377 0 499 9 794 59 160 27 206 50 244 125 42 84 23 169 -51 224
-44 33 -159 29 -327 -11 -372 -87 -769 -126 -1075 -105 -619 44 -1081 239
-1469 620 -310 305 -522 656 -712 1179 -86 240 -94 279 -110 538 -16 285 -19
896 -4 1045 30 309 85 541 196 827 253 658 742 1180 1355 1448 336 148 673
215 1078 215 l203 0 117 -47 c491 -198 843 -493 1019 -856 97 -198 132 -352
132 -582 0 -180 -17 -287 -70 -446 -188 -566 -694 -1035 -1355 -1255 -86 -29
-112 -30 -120 -5 -12 39 -88 146 -173 242 -48 54 -104 127 -125 161 -73 121
-120 336 -115 522 l3 98 63 24 c128 48 204 95 293 184 94 93 142 170 181 285
20 60 23 90 23 210 -1 144 -6 172 -55 295 -33 84 -106 186 -172 241 -139 115
-257 146 -497 129 -388 -28 -661 -148 -774 -341 -80 -135 -74 -296 17 -484 52
-105 113 -189 248 -338 54 -59 114 -137 133 -172 163 -291 212 -796 140 -1445
-15 -137 -18 -157 -55 -382 -12 -70 -19 -131 -16 -136 3 -5 107 -15 231 -22
226 -13 226 -13 243 -38 12 -19 17 -48 17 -102 0 -64 -4 -82 -27 -122 -50 -84
-144 -147 -278 -184 -104 -29 -423 -27 -597 5 -150 27 -172 24 -210 -32 -29
-42 -29 -79 0 -107 42 -41 290 -130 461 -165 355 -74 731 -18 1014 150 221
131 353 263 569 570 21 29 40 43 73 53 92 27 200 -9 184 -61 -29 -93 -106
-194 -216 -282 -139 -110 -131 -101 -125 -146 8 -59 21 -69 87 -69 193 0 471
190 652 445 27 39 61 91 74 117 16 32 43 61 82 89 72 53 241 222 314 315 277
351 421 707 482 1194 40 317 44 396 27 532 -6 40 -15 118 -21 173 -62 533
-220 940 -496 1282 -404 499 -1033 766 -1789 762 -104 -1 -226 -5 -270 -10z"/>
</g>
</svg>
