<?xml version="1.0" standalone="no"?>
<!DOCTYPE svg PUBLIC "-//W3C//DTD SVG 20010904//EN"
 "http://www.w3.org/TR/2001/REC-SVG-20010904/DTD/svg10.dtd">
<svg version="1.0" xmlns="http://www.w3.org/2000/svg"
 width="986pt" height="1368pt" viewBox="0 0 986 1368"
 preserveAspectRatio="xMidYMid meet">

<g transform="translate(0.0,1368) scale(0.1,-0.1)"
fill="#7852a8" stroke="none">
<path d="M7010 12883 c-168 -126 -565 -448 -1110 -898 -492 -407 -1002 -804
-1079 -841 -83 -40 -189 9 -267 123 -82 120 -101 218 -69 368 59 282 203 534
582 1019 81 103 155 197 163 209 77 107 -350 -315 -507 -500 -429 -508 -698
-987 -804 -1433 -18 -76 -18 -293 0 -350 37 -113 130 -200 234 -217 20 -3 40
-9 42 -14 3 -4 -7 -23 -23 -41 -57 -66 -204 -271 -289 -400 -371 -568 -597
-1100 -753 -1773 -10 -42 -41 -212 -59 -325 -16 -98 -43 -421 -39 -466 3 -38
4 -39 38 -35 19 1 57 11 84 22 53 20 70 17 62 -9 -9 -29 -44 -397 -60 -622
-50 -718 -16 -1348 104 -1930 16 -80 30 -148 30 -152 0 -5 4 -8 8 -8 5 0 12
100 15 223 8 266 28 507 67 810 23 185 68 427 88 478 16 41 83 113 194 208
117 100 159 144 175 187 11 27 22 132 58 516 11 129 19 167 45 234 124 311
358 662 718 1074 214 244 775 805 1097 1095 145 131 197 182 175 169 -8 -4
-64 -40 -125 -80 -60 -39 -229 -144 -375 -234 -792 -488 -1143 -759 -1515
-1173 -103 -116 -128 -135 -150 -117 -37 31 1 427 66 685 151 598 564 1326
1198 2110 161 199 398 474 547 635 389 420 828 862 1204 1210 337 312 356 330
350 330 -3 0 -57 -39 -120 -87z"/>
<path d="M3528 11653 c-39 -46 -320 -462 -459 -680 -319 -498 -608 -1028 -733
-1342 -79 -198 -93 -275 -106 -596 -34 -856 -109 -1385 -252 -1785 -47 -131
-82 -211 -174 -392 -46 -92 -91 -196 -100 -230 -12 -48 -17 -155 -24 -443 l-8
-380 -36 -138 c-43 -171 -85 -265 -142 -317 -53 -49 -103 -63 -172 -50 -406
77 -508 740 -301 1950 32 187 54 300 69 365 5 22 19 85 30 140 34 160 97 430
130 555 43 163 45 174 32 166 -7 -4 -12 -11 -12 -16 0 -5 -45 -102 -100 -215
-55 -114 -100 -209 -100 -210 0 -2 -15 -36 -34 -77 -258 -560 -434 -1081 -495
-1468 -12 -74 -26 -160 -31 -191 -13 -71 -13 -303 0 -366 5 -26 17 -86 26
-133 31 -156 67 -243 204 -485 139 -246 147 -269 186 -540 99 -687 260 -1277
456 -1670 149 -300 349 -520 573 -633 68 -34 190 -71 338 -102 252 -53 287
-73 373 -207 92 -142 163 -233 263 -336 216 -223 432 -339 746 -403 61 -12
177 -18 490 -24 555 -10 567 -13 762 -175 265 -221 497 -352 713 -403 116 -28
174 -34 435 -43 154 -5 363 -18 465 -29 612 -66 904 -85 1195 -77 518 14 872
105 1283 330 50 28 92 54 92 59 0 5 -3 7 -7 5 -25 -16 -373 -70 -648 -102
-353 -40 -942 -53 -1235 -27 -781 70 -1418 260 -1999 594 -1240 714 -2055
2030 -2411 3892 -16 83 -36 200 -45 261 -16 113 -21 128 -30 104 -13 -38 -57
-235 -70 -319 -70 -447 -18 -839 180 -1340 70 -177 107 -301 112 -376 5 -65 3
-79 -21 -128 -70 -144 -282 -211 -412 -130 -186 115 -320 490 -398 1114 -44
353 -81 1058 -58 1085 12 14 60 171 77 253 28 131 35 208 49 487 15 308 17
317 102 521 83 201 86 220 89 769 1 259 8 554 14 657 43 729 215 1345 519
1862 90 154 132 248 187 416 26 80 53 163 60 185 48 148 234 547 350 754 36
64 41 86 13 54z"/>
<path d="M7755 10612 c-36 -9 -43 -32 -16 -56 23 -21 154 -35 339 -36 l122 0
0 -124 0 -124 -212 -4 c-117 -3 -221 -8 -230 -12 -28 -13 -22 -51 13 -80 17
-14 38 -27 47 -27 9 -1 98 -4 197 -8 l180 -6 3 -91 3 -91 -203 -6 c-215 -6
-258 -14 -258 -46 0 -33 35 -43 191 -53 135 -10 340 0 356 16 15 14 24 194 21
408 -3 214 -5 248 -22 281 -10 21 -28 43 -40 50 -23 13 -438 21 -491 9z"/>
<path d="M6724 10595 c-112 -24 -205 -83 -249 -159 -36 -61 -70 -202 -56 -232
10 -23 15 -24 103 -24 51 0 109 -5 129 -10 61 -17 70 -35 80 -167 5 -65 12
-125 15 -133 9 -22 33 36 34 82 1 89 42 209 75 222 9 3 59 6 110 6 154 0 164
11 145 150 -14 99 -25 124 -79 173 -46 42 -77 58 -146 80 -80 24 -96 26 -161
12z m164 -89 c15 -8 43 -32 64 -53 91 -95 113 -166 61 -200 -24 -16 -54 -18
-256 -18 -209 0 -230 2 -242 18 -38 53 68 219 161 252 52 19 177 19 212 1z"/>
<path d="M9319 10592 c-57 -29 -159 -112 -180 -146 -10 -17 -19 -45 -19 -62 0
-55 108 -210 184 -266 36 -26 41 -27 55 -13 14 13 12 20 -12 67 -15 29 -45 82
-67 117 -22 36 -40 74 -40 86 0 22 88 115 109 115 22 0 211 -247 211 -276 0
-16 -293 -294 -309 -294 -5 0 -40 39 -78 88 -37 48 -105 125 -150 172 -78 80
-84 84 -99 68 -16 -16 -16 -20 -2 -55 19 -49 208 -326 256 -375 21 -22 46 -38
59 -38 16 0 63 38 151 123 71 67 155 143 187 168 33 24 73 63 89 86 l29 42
-18 41 c-10 22 -24 45 -32 52 -8 6 -25 35 -39 63 -36 78 -208 255 -246 255 -2
0 -20 -8 -39 -18z"/>
<path d="M5132 10553 c-12 -2 -30 -16 -40 -31 -15 -23 -17 -60 -21 -275 -1
-137 0 -274 4 -304 l7 -55 40 6 c22 4 164 11 316 17 152 5 293 13 312 17 29 7
37 14 48 47 19 56 9 341 -15 455 l-19 85 -99 18 c-107 18 -146 13 -165 -24 -6
-10 -15 -62 -20 -116 -13 -125 -16 -135 -43 -131 -34 5 -64 79 -75 181 -6 49
-15 94 -21 100 -12 12 -166 19 -209 10z m167 -111 c5 -10 14 -52 20 -95 15
-110 28 -129 106 -163 73 -30 83 -29 119 19 21 29 34 98 35 195 l1 62 60 0
c57 0 61 -2 71 -27 15 -40 1 -427 -17 -450 -11 -16 -35 -18 -252 -18 -188 0
-242 3 -255 14 -15 12 -17 42 -17 247 l0 234 60 0 c47 0 61 -4 69 -18z"/>
<path d="M6825 7819 c-99 -9 -225 -27 -330 -44 -302 -52 -647 -151 -987 -284
-139 -54 -169 -62 -328 -85 -283 -42 -369 -81 -404 -183 -22 -66 -20 -185 5
-290 31 -125 30 -243 0 -306 -42 -86 -98 -115 -291 -153 -191 -37 -237 -61
-283 -149 -29 -56 -34 -188 -12 -361 32 -259 9 -319 -185 -474 -55 -44 -101
-89 -117 -117 l-26 -45 6 -286 c7 -286 13 -386 43 -622 92 -739 328 -1363 696
-1838 108 -139 365 -396 496 -496 447 -339 981 -553 1597 -640 265 -37 325
-41 675 -40 377 0 499 9 794 59 160 27 206 50 244 125 42 84 23 169 -51 224
-44 33 -159 29 -327 -11 -372 -87 -769 -126 -1075 -105 -619 44 -1081 239
-1469 620 -310 305 -522 656 -712 1179 -86 240 -94 279 -110 538 -16 285 -19
896 -4 1045 30 309 85 541 196 827 253 658 742 1180 1355 1448 336 148 673
215 1078 215 l203 0 117 -47 c491 -198 843 -493 1019 -856 97 -198 132 -352
132 -582 0 -180 -17 -287 -70 -446 -188 -566 -694 -1035 -1355 -1255 -86 -29
-112 -30 -120 -5 -12 39 -88 146 -173 242 -48 54 -104 127 -125 161 -73 121
-120 336 -115 522 l3 98 63 24 c128 48 204 95 293 184 94 93 142 170 181 285
20 60 23 90 23 210 -1 144 -6 172 -55 295 -33 84 -106 186 -172 241 -139 115
-257 146 -497 129 -388 -28 -661 -148 -774 -341 -80 -135 -74 -296 17 -484 52
-105 113 -189 248 -338 54 -59 114 -137 133 -172 163 -291 212 -796 140 -1445
-15 -137 -18 -157 -55 -382 -12 -70 -19 -131 -16 -136 3 -5 107 -15 231 -22
226 -13 226 -13 243 -38 12 -19 17 -48 17 -102 0 -64 -4 -82 -27 -122 -50 -84
-144 -147 -278 -184 -104 -29 -423 -27 -597 5 -150 27 -172 24 -210 -32 -29
-42 -29 -79 0 -107 42 -41 290 -130 461 -165 355 -74 731 -18 1014 150 221
131 353 263 569 570 21 29 40 43 73 53 92 27 200 -9 184 -61 -29 -93 -106
-194 -216 -282 -139 -110 -131 -101 -125 -146 8 -59 21 -69 87 -69 193 0 471
190 652 445 27 39 61 91 74 117 16 32 43 61 82 89 72 53 241 222 314 315 277
351 421 707 482 1194 40 317 44 396 27 532 -6 40 -15 118 -21 173 -62 533
-220 940 -496 1282 -404 499 -1033 766 -1789 762 -104 -1 -226 -5 -270 -10z"/>
</g>
</svg>
