<?xml version="1.0" standalone="no"?>
<!DOCTYPE svg PUBLIC "-//W3C//DTD SVG 20010904//EN"
 "http://www.w3.org/TR/2001/REC-SVG-20010904/DTD/svg10.dtd">
<svg version="1.0" xmlns="http://www.w3.org/2000/svg"
 width="986pt" height="1368pt" viewBox="0 0 986 1368"
 preserveAspectRatio="xMidYMid meet">

<g transform="translate(0.0,1368) scale(0.1,-0.1)"
fill="#d1a449" stroke="none">
<path d="M2000 13019 c-457 -38 -752 -118 -1090 -296 -176 -92 -177 -94 -30
-67 330 60 683 98 1063 115 572 25 1244 -48 1707 -185 25 -8 79 -24 120 -36
41 -11 84 -25 95 -30 11 -5 49 -19 85 -31 218 -73 496 -202 725 -334 97 -56
360 -230 419 -277 333 -264 599 -531 827 -828 280 -366 534 -813 709 -1252 23
-57 45 -112 50 -123 42 -96 150 -416 205 -610 9 -33 21 -71 26 -85 16 -47 97
-385 123 -510 14 -69 32 -156 40 -195 8 -38 24 -131 36 -205 25 -164 29 -184
36 -177 3 3 17 52 30 109 120 505 93 928 -92 1430 -150 409 -156 427 -157 518
-1 54 3 94 12 108 29 54 89 107 156 139 247 118 437 -65 563 -548 86 -327 135
-719 163 -1320 13 -275 11 -310 -19 -389 -70 -187 -112 -484 -112 -796 0 -143
-15 -212 -88 -394 -94 -235 -92 -223 -102 -900 -8 -584 -17 -745 -55 -1005
-82 -549 -235 -1005 -477 -1420 -105 -181 -135 -251 -229 -540 -28 -88 -76
-216 -106 -285 -59 -135 -221 -462 -272 -549 -57 -96 -26 -64 69 71 198 282
427 635 602 928 67 111 99 167 183 315 124 219 265 505 335 680 82 204 96 284
105 575 7 275 33 658 55 840 5 41 14 118 21 170 41 343 124 682 224 927 36 86
149 319 185 378 47 78 52 121 60 515 8 371 11 402 52 570 49 203 108 314 191
357 46 23 147 13 220 -22 233 -115 339 -487 308 -1081 -7 -115 -16 -245 -21
-289 -6 -44 -15 -118 -21 -165 -28 -226 -123 -762 -170 -960 -6 -25 -14 -63
-19 -85 -29 -129 -77 -327 -106 -439 -19 -71 -33 -130 -31 -132 3 -4 69 130
183 371 57 121 77 166 158 350 18 41 73 175 127 313 5 12 13 32 18 45 69 169
171 495 220 699 55 226 87 509 76 673 -17 269 -74 436 -257 750 -110 189 -127
239 -158 455 -21 150 -25 177 -60 370 -107 586 -241 1037 -406 1359 -225 439
-478 647 -880 726 -153 29 -190 39 -244 62 -74 32 -98 57 -191 195 -275 409
-561 613 -969 693 -109 22 -384 36 -540 29 -153 -7 -389 8 -483 32 -34 9 -72
18 -84 21 -12 3 -70 46 -129 95 -320 268 -538 389 -793 443 -97 20 -301 35
-476 35 -84 0 -213 7 -287 15 -766 84 -1158 107 -1428 84z"/>
<path d="M2150 12284 c-19 -2 -84 -9 -145 -15 -60 -5 -137 -14 -170 -19 -283
-43 -305 -50 -355 -106 -62 -71 -64 -179 -5 -239 45 -44 124 -64 193 -47 303
72 433 95 748 131 134 16 508 13 649 -4 334 -41 565 -110 825 -246 94 -50 291
-175 310 -198 3 -3 27 -24 55 -46 189 -152 401 -407 552 -665 53 -90 156 -295
187 -370 10 -25 26 -63 36 -85 19 -43 140 -403 158 -470 11 -40 14 -83 33
-570 15 -377 0 -744 -40 -970 -62 -354 -190 -706 -367 -1005 -282 -477 -694
-842 -1184 -1048 -292 -123 -546 -180 -897 -204 -259 -17 -360 -6 -508 57
-474 200 -796 468 -979 817 -206 391 -207 820 -2 1253 210 442 619 808 1136
1015 101 41 222 80 246 80 7 0 24 -24 39 -52 35 -68 66 -109 139 -189 189
-206 245 -349 262 -665 8 -146 10 -142 -71 -169 -168 -56 -346 -202 -417 -340
-60 -116 -80 -203 -81 -335 0 -275 130 -507 344 -614 102 -51 158 -60 349 -53
345 12 607 105 751 265 73 81 101 151 107 262 9 198 -73 371 -287 603 -55 59
-109 120 -119 135 -75 105 -137 264 -173 447 -53 266 -52 780 1 1170 25 181
48 326 59 375 6 26 5 42 -1 46 -6 4 -112 14 -236 23 l-227 16 -14 30 c-21 44
-19 151 4 200 11 22 40 60 65 85 149 149 458 183 901 99 64 -13 104 1 133 45
21 34 21 89 -2 109 -32 29 -214 99 -358 137 -156 41 -245 53 -419 53 -203 1
-275 -10 -469 -75 -290 -96 -559 -316 -761 -620 -64 -97 -97 -118 -183 -118
-53 0 -115 27 -120 52 -2 9 12 47 30 84 37 77 144 192 243 264 33 24 63 48 67
54 13 19 9 66 -8 91 -14 21 -24 25 -63 25 -231 0 -562 -251 -727 -552 -28 -50
-50 -76 -88 -102 -143 -96 -363 -347 -486 -556 -178 -299 -259 -541 -317 -945
-24 -168 -24 -591 0 -765 47 -344 122 -601 246 -850 218 -438 550 -753 1011
-958 72 -33 299 -108 364 -122 22 -4 65 -13 95 -19 188 -38 269 -45 551 -46
281 0 361 6 570 42 47 8 108 18 135 23 220 37 569 141 880 261 168 65 196 73
310 89 44 6 112 16 150 22 294 43 356 142 290 472 -29 147 -31 184 -9 255 32
107 99 152 284 186 208 38 269 71 307 165 18 45 22 75 22 160 0 58 -4 125 -10
150 -6 25 -11 99 -12 165 -1 111 1 124 27 178 18 37 45 72 78 100 147 122 193
165 210 197 19 33 19 51 14 330 -7 365 -32 622 -92 940 -138 722 -422 1309
-849 1749 -339 350 -740 595 -1235 756 -247 80 -476 129 -800 171 -109 15
-788 28 -880 18z"/>
<path d="M6580 8994 c0 -145 -29 -583 -50 -754 -5 -41 -14 -118 -20 -170 -25
-206 -73 -468 -95 -515 -21 -46 -89 -116 -219 -228 -73 -62 -127 -117 -139
-141 -13 -24 -23 -72 -28 -130 -5 -50 -13 -136 -18 -191 -5 -55 -15 -158 -21
-230 -10 -106 -19 -147 -46 -219 -117 -305 -427 -762 -769 -1136 -341 -372
-751 -775 -1184 -1162 -29 -27 -50 -48 -46 -48 3 0 38 22 78 48 69 46 330 210
560 351 298 183 786 521 892 618 11 10 52 45 90 78 112 96 238 220 376 372 71
78 139 145 151 149 53 17 57 -38 22 -355 -27 -256 -124 -600 -241 -861 -472
-1050 -1432 -2215 -3043 -3694 -78 -72 -57 -65 44 13 156 122 483 385 671 540
533 439 513 423 872 712 286 230 461 364 584 447 66 45 83 52 126 52 93 0 185
-86 255 -236 27 -59 31 -79 30 -144 -3 -196 -105 -450 -294 -735 -113 -168
-123 -183 -310 -422 -87 -112 -154 -203 -149 -203 18 0 399 387 503 510 244
290 435 570 574 840 231 447 299 792 200 1002 -34 72 -124 137 -209 153 -21 4
-40 11 -43 16 -3 5 19 39 49 76 323 402 637 961 819 1458 119 324 209 674 258
1005 17 116 40 368 40 443 0 65 -1 67 -25 67 -14 0 -53 -9 -86 -20 -55 -19
-86 -19 -75 -2 7 11 34 279 68 657 17 190 17 980 0 1140 -29 274 -34 313 -43
380 -28 195 -94 543 -105 554 -2 2 -4 -36 -4 -85z"/>
<path d="M3260 3750 c-16 -30 -17 -200 -2 -228 18 -31 51 -42 126 -42 78 0
100 -14 98 -64 -2 -48 -35 -121 -60 -135 -12 -6 -52 -11 -90 -11 -55 0 -71 -3
-76 -16 -9 -24 -7 -187 3 -203 21 -33 81 37 81 96 0 17 4 43 10 58 9 24 13 25
59 19 41 -5 56 -3 85 16 l36 22 0 129 c0 122 -1 131 -23 153 -16 16 -40 25
-82 30 -70 8 -85 18 -85 60 0 34 -46 136 -61 136 -4 0 -13 -9 -19 -20z"/>
<path d="M2195 3742 c-155 -54 -236 -159 -252 -327 l-6 -62 109 -7 c191 -12
203 -23 212 -198 3 -60 8 -111 13 -114 14 -8 26 29 32 101 6 73 28 146 52 179
18 23 77 35 183 36 106 0 110 7 93 142 -14 110 -38 154 -109 199 -108 68 -224
87 -327 51z m281 -135 c86 -88 111 -145 78 -177 -11 -11 -46 -25 -79 -31 -65
-12 -398 -8 -427 5 -39 18 -8 123 59 197 56 62 100 79 208 79 l89 0 72 -73z"/>
<path d="M4573 3698 c-29 -30 -73 -104 -142 -241 -113 -222 -136 -259 -159
-255 -31 6 -39 48 -46 236 -4 103 -10 211 -13 241 l-6 54 -33 -64 -33 -64 0
-200 c-1 -189 0 -203 23 -250 24 -52 76 -105 102 -105 8 0 27 6 42 14 40 21
146 206 218 381 61 146 89 97 103 -180 9 -160 29 -275 50 -275 23 0 35 63 39
215 3 131 0 183 -17 284 -27 161 -37 195 -64 226 l-22 26 -42 -43z"/>
<path d="M3402 3675 l-37 -34 36 -1 c38 0 69 24 69 53 0 27 -27 20 -68 -18z"/>
<path d="M3406 3160 c-50 -55 -45 -76 17 -73 80 2 100 38 49 87 l-29 27 -37
-41z"/>
</g>
</svg>
