<?xml version="1.0" standalone="no"?>
<!DOCTYPE svg PUBLIC "-//W3C//DTD SVG 20010904//EN"
 "http://www.w3.org/TR/2001/REC-SVG-20010904/DTD/svg10.dtd">
<svg version="1.0" xmlns="http://www.w3.org/2000/svg"
 width="986pt" height="1368pt" viewBox="0 0 986 1368"
 preserveAspectRatio="xMidYMid meet">

<g transform="translate(0.0,1368) scale(0.1,-0.1)"
fill="#22272E" stroke="none">
<path d="M5090 11719 c-205 -18 -378 -66 -558 -155 -73 -36 -132 -67 -130 -69
2 -2 37 3 78 11 120 23 361 52 545 65 284 20 650 -4 924 -61 801 -167 1424
-638 1830 -1385 203 -373 363 -855 447 -1349 13 -76 25 -140 27 -142 8 -9 47
188 57 293 22 216 -13 416 -122 709 -54 145 -63 178 -63 236 0 60 3 70 30 98
44 46 96 70 154 70 77 0 124 -41 184 -160 93 -187 139 -452 167 -961 10 -175
9 -212 -3 -241 -35 -83 -58 -224 -71 -426 -13 -206 -14 -208 -54 -309 -23 -56
-46 -130 -52 -165 -5 -35 -10 -184 -10 -333 0 -326 -12 -510 -46 -712 -47
-286 -121 -510 -239 -728 -95 -174 -117 -224 -168 -375 -61 -184 -148 -374
-240 -529 -12 -19 -16 -31 -9 -27 6 4 83 114 170 244 235 354 411 656 516 889
89 195 97 230 107 453 29 677 87 981 251 1310 l73 144 7 256 c6 232 9 264 33
350 52 188 117 243 233 194 195 -81 248 -431 157 -1043 -30 -199 -92 -505
-144 -711 -21 -83 -35 -148 -31 -143 4 4 39 77 79 161 266 563 384 949 384
1252 0 198 -25 285 -140 486 -79 140 -87 164 -113 331 -77 514 -195 900 -344
1128 -122 187 -248 273 -471 321 -167 36 -183 46 -256 157 -118 176 -292 324
-443 377 -119 42 -185 51 -436 56 -159 3 -270 10 -316 20 -64 13 -78 21 -153
85 -109 92 -184 142 -284 189 -125 60 -178 70 -407 80 -113 5 -290 18 -395 29
-358 39 -559 47 -755 30z"/>
<path d="M2523 11675 c-70 -35 -169 -127 -183 -171 -11 -32 -9 -41 19 -99 40
-81 163 -215 197 -215 37 0 31 35 -23 120 -65 106 -86 155 -74 178 14 27 89
92 105 92 16 0 105 -107 171 -207 l47 -72 -118 -114 c-146 -140 -188 -177
-203 -177 -5 0 -29 26 -52 58 -61 83 -197 238 -225 257 -37 24 -54 19 -54 -15
0 -21 31 -76 109 -192 132 -197 174 -248 206 -248 29 0 59 24 201 159 61 58
137 129 170 157 94 81 103 118 47 185 -15 17 -37 53 -49 80 -24 52 -171 212
-215 235 -24 12 -32 11 -76 -11z"/>
<path d="M3765 11673 c-152 -55 -217 -130 -251 -294 -22 -105 -17 -109 109
-109 172 0 191 -20 203 -214 5 -94 8 -106 21 -94 8 9 17 48 22 94 10 99 28
158 57 189 21 22 31 25 97 25 125 0 167 9 178 38 9 22 2 96 -17 200 -8 40 -73
101 -150 139 -92 45 -189 54 -269 26z m233 -93 c45 -32 114 -119 131 -163 8
-20 8 -34 1 -47 -21 -40 -48 -45 -255 -48 -276 -5 -304 5 -271 91 37 98 99
165 174 187 15 5 61 9 103 9 69 1 80 -2 117 -29z"/>
<path d="M5240 11279 c-127 -9 -307 -34 -357 -50 -73 -23 -101 -125 -49 -177
36 -36 89 -35 281 5 83 18 204 37 270 44 147 14 399 7 515 -16 313 -61 582
-216 772 -443 161 -191 268 -392 363 -677 l43 -130 12 -275 c18 -431 -4 -653
-91 -915 -226 -678 -796 -1094 -1501 -1095 -132 0 -170 10 -328 90 -294 148
-473 353 -552 630 -19 69 -16 301 5 380 50 185 147 350 287 491 116 117 202
178 355 254 101 50 238 105 261 105 1 0 13 -19 27 -42 14 -24 55 -77 91 -118
36 -41 77 -98 91 -125 33 -66 55 -171 55 -270 l0 -81 -37 -13 c-114 -40 -215
-128 -266 -230 -26 -54 -32 -78 -35 -156 -6 -143 30 -245 120 -334 84 -82 173
-107 337 -91 377 35 547 209 452 460 -25 65 -78 143 -161 233 -108 119 -152
227 -181 442 -18 137 -6 452 25 660 14 94 26 177 26 186 0 14 -20 17 -131 23
-72 4 -137 10 -145 13 -18 7 -28 64 -19 109 9 51 76 115 145 138 81 27 250 32
384 11 l108 -17 24 23 c31 29 31 64 -1 85 -34 22 -208 80 -285 94 -103 19
-291 15 -381 -9 -206 -54 -379 -179 -517 -374 -30 -43 -66 -83 -79 -88 -38
-14 -79 -11 -103 9 l-22 18 25 50 c24 48 104 132 160 168 33 22 38 70 8 86
-29 15 -112 -4 -184 -42 -78 -41 -223 -183 -266 -259 -21 -38 -56 -76 -105
-116 -125 -103 -267 -299 -342 -472 -160 -369 -155 -923 11 -1310 192 -450
605 -728 1127 -759 324 -20 689 44 1053 184 84 32 161 53 258 70 76 13 151 31
168 39 69 36 84 114 52 269 -34 166 11 225 196 257 92 15 134 39 156 88 16 36
17 55 10 163 -9 145 -8 204 6 232 6 12 51 59 100 106 l89 85 0 115 c0 527
-117 1022 -324 1374 -316 537 -872 845 -1613 896 -166 11 -227 11 -393 -1z"/>
<path d="M4125 10543 c-60 -47 -303 -244 -540 -438 -465 -381 -722 -579 -762
-590 -59 -15 -147 68 -179 170 -17 52 -17 59 0 134 39 184 152 376 398 679 33
39 55 72 50 72 -16 0 -289 -285 -372 -390 -46 -58 -116 -154 -156 -215 -305
-465 -360 -838 -134 -906 22 -7 40 -13 40 -15 0 -1 -37 -51 -82 -112 -295
-394 -503 -872 -583 -1339 -22 -129 -46 -372 -38 -382 2 -3 26 1 55 7 28 7 52
11 53 10 2 -2 -3 -55 -10 -118 -38 -332 -46 -749 -19 -1030 14 -148 68 -487
79 -499 3 -2 5 16 5 40 0 176 34 531 72 747 24 141 35 160 150 256 105 88 103
83 123 306 19 211 35 272 110 405 175 314 462 638 1050 1184 66 61 78 75 45
54 -25 -17 -142 -90 -260 -163 -481 -298 -649 -426 -874 -663 -84 -89 -127
-127 -136 -122 -27 17 7 312 57 485 180 626 829 1464 1883 2432 52 48 93 88
90 87 -3 0 -54 -38 -115 -86z"/>
<path d="M1968 9693 c-218 -316 -408 -633 -538 -898 -112 -229 -131 -289 -141
-460 -5 -77 -13 -219 -19 -315 -30 -492 -93 -777 -232 -1055 -33 -66 -65 -133
-70 -150 -5 -16 -13 -142 -18 -280 -6 -206 -12 -264 -29 -330 -41 -153 -87
-211 -166 -208 -82 3 -150 55 -199 152 -77 151 -86 476 -25 891 25 172 98 530
148 729 22 84 36 149 32 145 -4 -5 -42 -81 -84 -169 -260 -550 -387 -965 -387
-1260 0 -178 31 -273 173 -536 56 -103 57 -108 82 -269 99 -643 241 -1042 448
-1257 103 -108 196 -155 377 -193 147 -30 173 -47 245 -155 70 -105 205 -245
289 -300 70 -45 182 -91 275 -111 42 -10 167 -18 346 -24 183 -5 293 -12 319
-21 21 -7 59 -32 85 -54 82 -74 214 -166 294 -207 125 -62 203 -78 432 -88
110 -5 286 -18 390 -29 704 -74 985 -42 1374 158 34 18 61 34 59 37 -2 2 -38
-3 -80 -11 -148 -28 -404 -56 -592 -64 -1526 -68 -2579 720 -3017 2258 -49
172 -122 511 -135 624 -4 32 -10 54 -15 50 -21 -21 -51 -216 -56 -363 -8 -230
16 -356 119 -633 73 -197 84 -272 46 -326 -47 -69 -159 -102 -227 -66 -161 83
-261 482 -287 1145 -6 152 -5 170 15 228 37 109 51 201 61 392 7 163 12 193
35 255 57 153 66 182 75 264 5 47 10 212 10 366 0 299 9 436 41 635 49 299
130 533 281 803 48 86 83 167 124 290 41 123 87 230 160 375 55 111 100 202
100 202 -1 0 -54 -75 -118 -167z"/>
<path d="M7910 9259 c0 -287 -64 -779 -110 -854 -11 -18 -59 -66 -106 -105
-47 -40 -91 -86 -99 -104 -8 -17 -21 -116 -30 -220 -18 -213 -30 -253 -126
-422 -175 -306 -573 -746 -1094 -1208 -16 -15 8 -3 55 27 47 30 157 98 245
152 412 253 596 392 816 616 86 87 161 159 166 159 20 0 23 -32 13 -144 -17
-186 -50 -325 -116 -496 -158 -406 -447 -837 -918 -1370 -123 -139 -672 -694
-876 -885 -99 -92 -105 -100 -45 -54 104 79 246 194 465 374 396 326 669 544
794 633 84 60 131 54 198 -23 32 -36 68 -123 68 -162 0 -49 -33 -177 -64 -246
-49 -110 -158 -273 -342 -507 l-59 -75 53 44 c68 56 231 230 322 344 369 461
531 947 363 1086 -21 17 -52 34 -70 37 -18 3 -35 9 -37 13 -2 3 35 59 82 123
263 355 462 783 552 1187 22 101 56 331 65 449 6 79 6 82 -15 82 -11 0 -36 -6
-55 -14 -19 -8 -36 -12 -38 -8 -2 4 4 77 14 162 40 340 41 823 4 1110 -17 133
-61 369 -70 378 -3 3 -5 -33 -5 -79z"/>
<path d="M4084 7519 c-259 -19 -571 -94 -826 -200 -40 -16 -116 -37 -168 -45
-157 -25 -215 -42 -246 -75 -27 -28 -29 -36 -29 -112 0 -45 7 -114 15 -154 13
-68 13 -75 -6 -119 -26 -64 -53 -81 -164 -104 -128 -27 -155 -41 -181 -92 -20
-40 -21 -50 -13 -153 17 -234 11 -254 -100 -345 -100 -81 -100 -81 -93 -295
21 -584 148 -1036 388 -1385 338 -491 884 -760 1619 -795 202 -10 584 22 672
56 42 17 70 54 75 102 4 35 1 48 -18 71 -35 40 -83 43 -221 12 -207 -46 -319
-59 -533 -60 -229 -1 -335 14 -504 70 -440 146 -745 486 -938 1049 -41 119
-46 143 -55 275 -5 80 -7 276 -5 435 4 264 7 301 31 411 127 594 508 1045
1028 1218 167 56 283 76 473 83 l170 5 78 -31 c311 -124 540 -326 639 -562 58
-138 74 -314 43 -473 -65 -343 -363 -670 -753 -826 -146 -59 -152 -59 -179
-11 -13 22 -52 75 -89 117 -78 93 -111 154 -129 243 -20 95 -22 223 -4 232 8
4 44 21 81 38 230 108 313 364 193 601 -54 106 -161 178 -280 188 -122 9 -328
-29 -428 -80 -54 -27 -125 -95 -148 -141 -67 -130 -12 -291 166 -486 108 -119
153 -240 176 -472 17 -185 -8 -574 -51 -765 -6 -26 -9 -48 -8 -50 2 -1 48 -5
103 -9 183 -11 183 -11 195 -54 21 -77 -21 -145 -118 -193 -63 -31 -73 -33
-197 -36 -89 -3 -160 1 -224 12 -94 17 -94 16 -118 -5 -27 -27 -30 -60 -5 -81
9 -8 42 -25 72 -36 316 -125 621 -101 870 68 69 47 175 153 226 227 72 103 86
114 145 111 67 -4 78 -20 53 -74 -19 -41 -91 -118 -159 -170 -37 -29 -39 -33
-30 -60 10 -27 14 -29 66 -28 116 2 287 128 394 288 32 49 77 101 109 126 153
122 313 361 384 575 98 293 104 718 16 1021 -117 406 -350 678 -713 835 -208
89 -478 129 -747 108z"/>
<path d="M5670 3985 c-16 -20 -2 -61 51 -141 l40 -62 -33 -47 c-27 -38 -33
-56 -33 -99 0 -51 9 -71 69 -151 16 -21 -3 -59 -41 -84 -89 -58 -107 -91 -49
-91 103 0 206 85 206 171 0 42 -61 145 -103 172 -33 21 -34 38 -6 63 12 10 34
45 50 77 35 74 28 96 -47 160 -59 49 -83 57 -104 32z"/>
<path d="M7151 3954 c-23 -26 -79 -122 -130 -224 -116 -232 -139 -270 -161
-270 -39 0 -44 24 -52 249 -4 119 -11 229 -16 245 -8 28 -8 28 -37 -30 -30
-58 -30 -62 -33 -242 -4 -217 7 -269 67 -332 79 -83 118 -52 239 188 49 97 95
194 102 215 15 49 40 46 58 -8 8 -22 18 -116 22 -210 8 -168 30 -280 55 -280
44 0 54 309 17 515 -21 117 -62 230 -82 230 -5 0 -26 -21 -49 -46z"/>
<path d="M5967 3963 c-17 -16 -5 -65 27 -106 l34 -44 -34 -59 c-47 -82 -46
-128 1 -174 29 -28 35 -41 35 -77 0 -36 -4 -45 -22 -52 -26 -10 -80 -65 -97
-98 -14 -27 -14 -60 -1 -68 14 -8 64 20 112 63 90 81 117 224 58 311 -34 49
-33 67 6 144 30 60 30 96 3 126 -32 34 -103 54 -122 34z"/>
</g>
</svg>
